HIERARCHY
ROOT Hips
{
	OFFSET 0.000000 71.427986 0.000000
	CHANNELS 6 Xposition Yposition Zposition Xrotation Yrotation Zrotation
	JOINT Pelvis
	{
		OFFSET 0.000000 0.000000 0.000000
		CHANNELS 3 Xrotation Yrotation Zrotation
		JOINT LeftUpLeg
		{
			OFFSET 6.797100 -2.508499 -1.318700
			CHANNELS 3 Xrotation Yrotation Zrotation
			JOINT LeftLeg
			{
				OFFSET 0.069008 -29.241863 0.690200
				CHANNELS 3 Xrotation Yrotation Zrotation
				JOINT LeftFoot
				{
					OFFSET -0.069008 -29.568123 -0.266800
					CHANNELS 3 Xrotation Yrotation Zrotation
					JOINT LeftToeBase
					{
						OFFSET 3.145500 -8.631000 16.059900
						CHANNELS 3 Xrotation Yrotation Zrotation
						End Site
						{
							OFFSET 0.000000 18.501587 0.000000
						}
					}
				}
			}
			JOINT Left_ShortSleeve
			{
				OFFSET 0.265923 -10.480953 1.153800
				CHANNELS 3 Xrotation Yrotation Zrotation
				End Site
				{
					OFFSET 1.725763 19.823879 0.000000
				}
			}
		}
		JOINT RightUpLeg
		{
			OFFSET -6.797100 -2.508499 -1.318700
			CHANNELS 3 Xrotation Yrotation Zrotation
			JOINT RightLeg
			{
				OFFSET -0.082453 -29.241932 0.688000
				CHANNELS 3 Xrotation Yrotation Zrotation
				JOINT RightFoot
				{
					OFFSET 0.082453 -29.568058 -0.264600
					CHANNELS 3 Xrotation Yrotation Zrotation
					JOINT RightToeBase
					{
						OFFSET -3.115300 -8.682800 16.113400
						CHANNELS 3 Xrotation Yrotation Zrotation
						End Site
						{
							OFFSET 0.000000 18.567114 0.000000
						}
					}
				}
			}
			JOINT Right_ShortSleeve
			{
				OFFSET -0.265923 -10.480953 1.153800
				CHANNELS 3 Xrotation Yrotation Zrotation
				End Site
				{
					OFFSET -1.725766 19.823910 0.000000
				}
			}
		}
	}
	JOINT Spine
	{
		OFFSET 0.000000 13.368103 0.470500
		CHANNELS 3 Xrotation Yrotation Zrotation
		JOINT Spine1
		{
			OFFSET 0.147000 13.837402 0.538800
			CHANNELS 3 Xrotation Yrotation Zrotation
			JOINT Spine2
			{
				OFFSET 0.168000 16.242897 -1.435500
				CHANNELS 3 Xrotation Yrotation Zrotation
				JOINT Neck
				{
					OFFSET 0.217200 18.631500 -1.679100
					CHANNELS 3 Xrotation Yrotation Zrotation
					JOINT Head
					{
						OFFSET 0.000000 6.599396 1.385900
						CHANNELS 3 Xrotation Yrotation Zrotation
						JOINT Hat
						{
							OFFSET -0.532200 27.220596 -10.096100
							CHANNELS 3 Xrotation Yrotation Zrotation
							End Site
							{
								OFFSET 0.000000 22.029861 0.000000
							}
						}
						JOINT HairD
						{
							OFFSET -10.777400 17.437393 -1.325900
							CHANNELS 3 Xrotation Yrotation Zrotation
							JOINT HairD1
							{
								OFFSET -3.290299 -11.051193 1.062200
								CHANNELS 3 Xrotation Yrotation Zrotation
								End Site
								{
									OFFSET 0.000000 11.579437 0.000000
								}
							}
						}
						JOINT HairB
						{
							OFFSET -10.777400 17.437393 1.467900
							CHANNELS 3 Xrotation Yrotation Zrotation
							JOINT HairB1
							{
								OFFSET -1.561200 -12.956299 3.590200
								CHANNELS 3 Xrotation Yrotation Zrotation
								End Site
								{
									OFFSET 0.000000 13.534866 0.000000
								}
							}
						}
						JOINT HairA
						{
							OFFSET 9.713100 17.437393 1.467900
							CHANNELS 3 Xrotation Yrotation Zrotation
							JOINT HairA1
							{
								OFFSET 1.561200 -12.956299 3.590200
								CHANNELS 3 Xrotation Yrotation Zrotation
								End Site
								{
									OFFSET 0.000000 13.534866 0.000000
								}
							}
						}
						JOINT HairC
						{
							OFFSET 9.713100 17.437393 -1.325900
							CHANNELS 3 Xrotation Yrotation Zrotation
							JOINT HairC1
							{
								OFFSET 3.290300 -11.051193 1.062200
								CHANNELS 3 Xrotation Yrotation Zrotation
								End Site
								{
									OFFSET 0.000000 11.579437 0.000000
								}
							}
						}
					}
				}
				JOINT LeftShoulder
				{
					OFFSET 5.101800 15.108002 -2.763700
					CHANNELS 3 Xrotation Yrotation Zrotation
					JOINT LeftArm
					{
						OFFSET 9.825497 2.506317 -1.597400
						CHANNELS 3 Xrotation Yrotation Zrotation
						JOINT LeftForeArm
						{
							OFFSET 21.966244 0.000000 0.000000
							CHANNELS 3 Xrotation Yrotation Zrotation
							JOINT LeftHand
							{
								OFFSET 33.879036 0.000000 0.000000
								CHANNELS 3 Xrotation Yrotation Zrotation
								JOINT LeftHandThumb1
								{
									OFFSET 6.715286 -2.359680 3.363841
									CHANNELS 3 Xrotation Yrotation Zrotation
									JOINT LeftHandThumb2
									{
										OFFSET 2.507072 -1.447464 1.447461
										CHANNELS 3 Xrotation Yrotation Zrotation
										JOINT LeftHandThumb3
										{
											OFFSET 2.898338 -1.673355 1.673357
											CHANNELS 3 Xrotation Yrotation Zrotation
											End Site
											{
												OFFSET -0.295959 3.727692 -0.131651
											}
										}
									}
								}
								JOINT LeftHandIndex1
								{
									OFFSET 14.190811 -0.254547 3.840278
									CHANNELS 3 Xrotation Yrotation Zrotation
									JOINT LeftHandIndex2
									{
										OFFSET 3.551727 0.000000 -0.000000
										CHANNELS 3 Xrotation Yrotation Zrotation
										JOINT LeftHandIndex3
										{
											OFFSET 2.894196 0.000000 0.000000
											CHANNELS 3 Xrotation Yrotation Zrotation
											End Site
											{
												OFFSET -1.000603 2.690872 0.366626
											}
										}
									}
								}
								JOINT LeftHandMiddle1
								{
									OFFSET 13.776489 0.000000 0.000000
									CHANNELS 3 Xrotation Yrotation Zrotation
									JOINT LeftHandMiddle2
									{
										OFFSET 3.438232 0.000000 0.000000
										CHANNELS 3 Xrotation Yrotation Zrotation
										JOINT LeftHandMiddle3
										{
											OFFSET 3.691551 0.000000 0.000000
											CHANNELS 3 Xrotation Yrotation Zrotation
											End Site
											{
												OFFSET -1.082298 3.499527 0.457670
											}
										}
									}
								}
								JOINT LeftHandRing1
								{
									OFFSET 13.966164 -0.268127 -3.067488
									CHANNELS 3 Xrotation Yrotation Zrotation
									JOINT LeftHandRing2
									{
										OFFSET 3.162567 0.000000 0.000000
										CHANNELS 3 Xrotation Yrotation Zrotation
										JOINT LeftHandRing3
										{
											OFFSET 3.324348 0.000000 0.000000
											CHANNELS 3 Xrotation Yrotation Zrotation
											End Site
											{
												OFFSET -0.861900 3.184998 0.405154
											}
										}
									}
								}
								JOINT LeftHandPinky1
								{
									OFFSET 13.131393 -0.168503 -5.746925
									CHANNELS 3 Xrotation Yrotation Zrotation
									JOINT LeftHandPinky2
									{
										OFFSET 2.849182 0.000000 0.000000
										CHANNELS 3 Xrotation Yrotation Zrotation
										JOINT LeftHandPinky3
										{
											OFFSET 2.805038 0.000000 0.000000
											CHANNELS 3 Xrotation Yrotation Zrotation
											End Site
											{
												OFFSET -0.882500 2.642609 0.325652
											}
										}
									}
								}
							}
							JOINT Left_Sleeve
							{
								OFFSET 6.592125 -0.646545 0.805568
								CHANNELS 3 Xrotation Yrotation Zrotation
								End Site
								{
									OFFSET -0.000179 20.275787 -0.000000
								}
							}
						}
					}
				}
				JOINT RightShoulder
				{
					OFFSET -5.731700 15.108002 -2.763700
					CHANNELS 3 Xrotation Yrotation Zrotation
					JOINT RightArm
					{
						OFFSET -9.825497 2.506317 -1.597400
						CHANNELS 3 Xrotation Yrotation Zrotation
						JOINT RightForeArm
						{
							OFFSET -21.966242 0.000000 0.000000
							CHANNELS 3 Xrotation Yrotation Zrotation
							JOINT RightHand
							{
								OFFSET -33.879032 0.000000 0.000000
								CHANNELS 3 Xrotation Yrotation Zrotation
								JOINT RightHandThumb1
								{
									OFFSET -6.715286 -2.359680 3.363841
									CHANNELS 3 Xrotation Yrotation Zrotation
									JOINT RightHandThumb2
									{
										OFFSET -2.507072 -1.447464 1.447461
										CHANNELS 3 Xrotation Yrotation Zrotation
										JOINT RightHandThumb3
										{
											OFFSET -2.898338 -1.673355 1.673357
											CHANNELS 3 Xrotation Yrotation Zrotation
											End Site
											{
												OFFSET 0.295959 3.727692 -0.131651
											}
										}
									}
								}
								JOINT RightHandIndex1
								{
									OFFSET -14.190811 -0.254547 3.840278
									CHANNELS 3 Xrotation Yrotation Zrotation
									JOINT RightHandIndex2
									{
										OFFSET -3.551727 0.000000 -0.000000
										CHANNELS 3 Xrotation Yrotation Zrotation
										JOINT RightHandIndex3
										{
											OFFSET -2.894196 0.000000 0.000000
											CHANNELS 3 Xrotation Yrotation Zrotation
											End Site
											{
												OFFSET 1.000603 2.690872 0.366626
											}
										}
									}
								}
								JOINT RightHandMiddle1
								{
									OFFSET -13.776489 0.000000 0.000000
									CHANNELS 3 Xrotation Yrotation Zrotation
									JOINT RightHandMiddle2
									{
										OFFSET -3.438232 0.000000 0.000000
										CHANNELS 3 Xrotation Yrotation Zrotation
										JOINT RightHandMiddle3
										{
											OFFSET -3.691551 0.000000 0.000000
											CHANNELS 3 Xrotation Yrotation Zrotation
											End Site
											{
												OFFSET 1.082298 3.499527 0.457670
											}
										}
									}
								}
								JOINT RightHandRing1
								{
									OFFSET -13.966164 -0.268127 -3.067488
									CHANNELS 3 Xrotation Yrotation Zrotation
									JOINT RightHandRing2
									{
										OFFSET -3.162567 0.000000 0.000000
										CHANNELS 3 Xrotation Yrotation Zrotation
										JOINT RightHandRing3
										{
											OFFSET -3.324348 0.000000 0.000000
											CHANNELS 3 Xrotation Yrotation Zrotation
											End Site
											{
												OFFSET 0.861900 3.184998 0.405154
											}
										}
									}
								}
								JOINT RightHandPinky1
								{
									OFFSET -13.131393 -0.168503 -5.746925
									CHANNELS 3 Xrotation Yrotation Zrotation
									JOINT RightHandPinky2
									{
										OFFSET -2.849182 0.000000 0.000000
										CHANNELS 3 Xrotation Yrotation Zrotation
										JOINT RightHandPinky3
										{
											OFFSET -2.805038 0.000000 0.000000
											CHANNELS 3 Xrotation Yrotation Zrotation
											End Site
											{
												OFFSET 0.882500 2.642609 0.325652
											}
										}
									}
								}
							}
							JOINT Right_Sleeve
							{
								OFFSET -6.592125 -0.646545 0.805568
								CHANNELS 3 Xrotation Yrotation Zrotation
								End Site
								{
									OFFSET 0.000179 20.275787 -0.000000
								}
							}
						}
					}
				}
				JOINT Bind_Right_JacketString
				{
					OFFSET -3.534800 11.969597 7.200700
					CHANNELS 3 Xrotation Yrotation Zrotation
					JOINT Bind_Right_JacketString1
					{
						OFFSET -0.319900 -6.102600 2.794100
						CHANNELS 3 Xrotation Yrotation Zrotation
						End Site
						{
							OFFSET 0.000000 6.719452 0.000000
						}
					}
				}
				JOINT Bind_Left_JacketString
				{
					OFFSET 2.904800 11.969597 7.200700
					CHANNELS 3 Xrotation Yrotation Zrotation
					JOINT Bind_Left_JacketString1
					{
						OFFSET 0.364800 -5.904503 3.186800
						CHANNELS 3 Xrotation Yrotation Zrotation
						End Site
						{
							OFFSET 0.000000 6.719513 0.000000
						}
					}
				}
				JOINT HairE
				{
					OFFSET 5.915200 17.612701 -11.592200
					CHANNELS 3 Xrotation Yrotation Zrotation
					JOINT HairE1
					{
						OFFSET 0.289200 -7.171898 -1.284500
						CHANNELS 3 Xrotation Yrotation Zrotation
						End Site
						{
							OFFSET 0.000000 7.291756 0.000000
						}
					}
				}
				JOINT HairF
				{
					OFFSET -0.864800 17.612701 -11.592200
					CHANNELS 3 Xrotation Yrotation Zrotation
					JOINT HairF1
					{
						OFFSET 0.000000 -14.087097 -2.127501
						CHANNELS 3 Xrotation Yrotation Zrotation
						End Site
						{
							OFFSET 0.000000 14.246841 0.000000
						}
					}
				}
				JOINT HairG
				{
					OFFSET -8.087700 17.612701 -11.592200
					CHANNELS 3 Xrotation Yrotation Zrotation
					JOINT HairG1
					{
						OFFSET -0.293600 -6.081398 -0.910100
						CHANNELS 3 Xrotation Yrotation Zrotation
						End Site
						{
							OFFSET 0.000000 6.156120 0.000000
						}
					}
				}
			}
		}
	}
	JOINT Pouch
	{
		OFFSET 0.000000 4.394501 10.847300
		CHANNELS 3 Xrotation Yrotation Zrotation
		End Site
		{
			OFFSET 0.000000 21.880577 0.000000
		}
	}
	JOINT Bag
	{
		OFFSET -13.229000 4.813004 -0.593300
		CHANNELS 3 Xrotation Yrotation Zrotation
		End Site
		{
			OFFSET 0.000000 21.880577 0.000000
		}
	}
	JOINT OccupyGuyFacialAnim_Joint
	{
		OFFSET 1.000000 -70.206398 -1.655000
		CHANNELS 3 Xrotation Yrotation Zrotation
		End Site
		{
			OFFSET 0.000000 21.880577 0.000000
		}
	}
}
MOTION
Frames: 4
Frame Time: 0.033333
0.067559 64.920456 -0.427943 11.746638 -18.961462 0.218052 -0.000001 0.000001 -0.000001 -44.293811 8.490778 24.108042 43.597296 7.765473 1.539700 -8.371485 2.380592 -17.908310 0.000000 0.000001 0.000000 0.000000 -0.000000 0.000000 -36.913102 -11.202659 -15.414931 43.266499 -9.187024 -1.276817 -12.456176 -2.709085 16.669872 -0.000000 0.000001 0.000000 0.000002 -0.000002 -0.000000 2.397041 -0.541163 1.970256 7.470204 -1.173138 1.477450 7.480779 -1.056939 1.506683 -5.830248 3.350062 -2.388616 -22.634028 14.538035 -1.221873 0.000000 0.000000 0.000000 0.000000 0.000000 0.000000 0.000000 0.000000 0.000000 0.000000 0.000000 0.000000 -0.000000 0.000000 0.000000 0.000000 0.000000 0.000000 -0.000000 0.000000 0.000000 0.000000 0.000000 0.000000 0.000000 0.000000 0.000000 0.579097 5.090346 -11.395044 -5.933637 -21.658876 -54.752098 0.000174 -84.234503 0.000239 21.301917 0.884239 27.092586 0.626555 5.419163 2.939368 4.330098 -0.661766 -3.639586 0.000002 -0.000001 -0.000001 -11.214680 -7.851922 -13.475836 0.126554 2.748748 -20.406563 -0.000001 -0.000001 -0.000002 -0.959018 -2.230401 -0.234610 1.950787 6.449929 -53.928117 0.000001 0.000000 -0.000001 -2.626881 11.796502 17.615370 -0.019129 3.425215 -25.377889 -0.000001 -0.000000 -0.000000 3.613640 25.110979 3.251921 0.229724 3.655767 -26.762452 -0.000001 0.000001 0.000003 0.000001 0.000002 0.000007 1.680631 4.496096 10.406881 -15.941289 17.871550 63.693003 0.003384 88.262348 -0.003443 24.903406 7.639910 1.474352 -7.743902 22.753127 -16.040365 6.934125 -44.978831 -9.137372 -0.000001 -0.000001 0.000001 0.371965 -3.723783 -20.941340 1.864474 -5.469484 44.606234 -0.000001 0.000000 0.000000 -0.739340 -3.087174 -14.591138 2.582707 -6.730578 59.796332 -0.000000 -0.000002 -0.000001 -0.206978 -8.038032 15.475325 -0.714938 -0.996939 6.584960 0.000001 -0.000003 0.000001 0.525328 -10.068869 29.061062 2.824798 -6.599667 55.817313 -0.000001 -0.000003 0.000002 0.000000 0.000001 -0.000000 -0.000001 0.000001 -0.000001 -0.000001 0.000002 -0.000000 -0.000001 0.000001 -0.000001 -0.000001 0.000001 -0.000001 -0.000001 0.000001 -0.000001 -0.000001 0.000002 -0.000000 -0.000001 0.000001 -0.000001 -0.000001 0.000001 -0.000001 -0.000001 0.000001 -0.000001 -0.000001 0.000002 -0.000000 -0.000001 0.000001 -0.000001 -0.000001 0.000001 -0.000001 -0.000001 0.000001 -0.000001 
-0.096470 65.262672 0.816969 6.251278 -16.655725 -0.689183 -0.000000 -0.000000 0.000000 -37.985424 9.715925 22.252276 42.843915 6.030148 2.489833 -9.360445 2.471552 -17.889497 0.000000 0.000001 -0.000000 0.000000 0.000001 -0.000001 -29.490062 -11.077002 -16.365881 42.583111 -11.213579 -1.901785 -13.417302 -3.130420 18.625120 0.000000 0.000000 -0.000000 -0.000002 0.000000 -0.000003 0.544872 -0.500326 1.679130 6.932223 -1.064724 1.473964 6.941617 -0.958955 1.500613 -2.916538 2.902634 -1.658215 1.816933 11.165204 3.361036 0.000001 0.000000 -0.000001 0.000001 0.000000 -0.000001 0.000001 0.000000 -0.000001 0.000001 0.000000 -0.000001 -0.000001 -0.000000 -0.000000 0.000001 0.000000 -0.000001 -0.000001 -0.000000 -0.000000 0.000001 0.000000 -0.000001 0.000001 0.000000 -0.000001 0.981159 4.759980 -12.517520 -5.133545 -28.226196 -49.572707 -4.031173 -61.141900 -11.521380 19.879155 -1.137069 39.768414 0.643303 5.438329 2.863787 4.303306 -0.650680 -3.602184 0.000005 -0.000000 0.000000 -11.318834 -7.943687 -13.387420 0.125540 2.747088 -20.392293 0.000000 -0.000003 -0.000002 -1.022726 -2.349765 0.031981 1.970098 6.467190 -54.147769 0.000001 0.000001 0.000001 -2.683822 11.810409 17.974444 -0.019305 3.424545 -25.372841 -0.000002 0.000001 -0.000001 3.715522 25.198709 3.470179 0.229474 3.654941 -26.756310 0.000003 -0.000002 0.000003 0.000002 0.000001 -0.000000 1.768074 5.467595 12.367392 -15.110513 19.057304 61.242017 0.192244 73.334942 3.027869 22.768577 6.097801 -5.983535 -7.742405 22.903344 -16.070534 6.773959 -45.097919 -9.292014 0.000000 -0.000001 -0.000001 0.393696 -3.753016 -21.088240 1.873054 -5.477985 44.695317 -0.000003 0.000001 0.000000 -0.720188 -3.080900 -14.797618 2.607518 -6.745728 60.037493 -0.000000 -0.000003 0.000001 -0.209339 -8.037580 15.501396 -0.716865 -0.983174 6.480933 0.000002 -0.000002 -0.000004 0.534270 -10.083735 29.038894 2.848437 -6.616846 56.045315 0.000000 0.000001 0.000001 -0.000000 -0.000001 0.000000 0.000000 -0.000002 -0.000000 0.000001 -0.000002 0.000000 0.000000 -0.000002 -0.000000 0.000000 -0.000002 -0.000000 0.000000 -0.000002 -0.000000 0.000001 -0.000002 0.000000 0.000000 -0.000002 -0.000000 0.000000 -0.000002 -0.000000 0.000000 -0.000002 -0.000000 0.000001 -0.000002 0.000000 -0.000000 -0.000000 0.000000 -0.000000 -0.000000 0.000000 -0.000000 -0.000000 0.000000 
-0.246069 65.887939 2.839225 -3.048324 -12.727168 -1.322375 0.000000 0.000001 0.000000 -26.640017 11.395017 18.335892 41.398330 3.767604 4.682306 -10.310375 2.497148 -16.992788 0.000000 -0.000000 0.000000 -0.000002 0.000000 0.000001 -16.333648 -12.202631 -18.274038 40.128540 -13.854141 -2.589469 -14.309854 -3.585849 21.324020 0.000000 0.000001 0.000000 0.000002 0.000000 -0.000002 -0.669301 -0.816825 1.267963 6.283531 -1.078289 1.313384 6.292621 -0.980679 1.339116 0.328550 2.730608 -0.976535 26.524118 12.538270 8.261405 0.000001 -0.000001 -0.000001 0.000001 -0.000001 -0.000001 0.000001 -0.000001 -0.000002 0.000001 -0.000001 -0.000001 0.000001 -0.000001 -0.000001 0.000001 -0.000001 -0.000001 0.000001 -0.000001 -0.000001 0.000001 -0.000001 -0.000001 0.000001 -0.000001 -0.000001 1.120973 2.631677 -13.796566 -2.157073 -34.589727 -42.303108 11.546898 -43.581648 -10.876782 16.748957 -15.000475 32.569740 0.661900 5.476073 2.782480 4.247225 -0.660716 -3.602835 0.000001 0.000005 0.000001 -11.372484 -8.079127 -13.319762 0.124348 2.745187 -20.375991 -0.000002 -0.000001 -0.000004 -0.979104 -2.458612 0.343040 1.995585 6.489440 -54.399243 -0.000001 0.000000 0.000001 -2.719456 11.725320 18.359670 -0.019469 3.423786 -25.367061 0.000002 0.000002 0.000001 3.652701 25.272762 3.781884 0.229196 3.654056 -26.749259 0.000000 -0.000001 0.000001 -0.000001 -0.000005 0.000002 1.762894 6.085147 13.129785 -17.751725 23.435235 62.127080 -1.496447 45.069768 6.343441 21.122891 8.631594 -16.773338 -7.799601 23.056048 -16.064912 6.588752 -45.153523 -9.487294 -0.000003 -0.000001 -0.000002 0.378465 -3.775331 -21.256495 1.882893 -5.487552 44.797408 -0.000003 0.000000 0.000000 -0.721700 -3.068929 -15.035046 2.637556 -6.765225 60.313651 -0.000003 -0.000001 -0.000001 -0.212673 -8.037804 15.531135 -0.718914 -0.967186 6.361800 -0.000003 0.000000 -0.000004 0.541578 -10.102060 29.012857 2.877061 -6.637845 56.306509 -0.000002 0.000000 0.000001 0.000001 -0.000001 0.000002 0.000001 0.000001 -0.000000 0.000001 0.000001 -0.000000 0.000001 0.000001 -0.000000 0.000001 0.000001 -0.000000 0.000001 0.000001 -0.000000 0.000001 0.000001 -0.000000 0.000001 0.000001 -0.000000 0.000001 0.000001 -0.000000 0.000001 0.000001 -0.000000 0.000001 0.000001 -0.000000 0.000000 0.000001 0.000000 0.000000 0.000001 0.000000 0.000000 0.000001 0.000000 
-0.297218 66.445145 4.951914 -11.937717 -7.687754 -1.021288 -0.000000 0.000001 -0.000000 -17.057086 11.098169 14.055495 43.358116 1.681433 7.734145 -10.016938 2.393902 -15.736594 0.000000 0.000000 -0.000000 0.000002 0.000000 -0.000000 -1.928086 -14.672898 -19.375179 35.938239 -17.247650 -2.826877 -14.356550 -3.988608 23.932059 -0.000000 -0.000002 -0.000000 0.000000 -0.000001 -0.000002 -1.732602 -1.282038 0.808541 5.579646 -1.151243 1.028189 5.588927 -1.061492 1.052857 2.372906 2.952014 -0.765030 37.636081 16.732394 9.118026 -0.000000 0.000000 0.000000 -0.000000 0.000000 0.000000 -0.000000 0.000000 -0.000000 -0.000000 0.000000 0.000000 -0.000003 -0.000000 -0.000002 -0.000000 0.000000 0.000000 -0.000003 -0.000000 -0.000002 -0.000000 0.000000 0.000000 -0.000000 0.000000 0.000000 1.025773 -0.132596 -14.541801 6.029600 -37.602295 -30.546016 34.192596 -47.292021 -7.747078 9.594606 -28.933931 6.088299 0.649780 5.460589 2.836686 4.274363 -0.655856 -3.622308 0.000002 -0.000001 0.000003 -11.303743 -8.009381 -13.379929 0.125092 2.746376 -20.386312 -0.000004 -0.000000 0.000002 -0.945022 -2.374032 0.149752 1.981216 6.476728 -54.240120 0.000004 -0.000004 0.000004 -2.680343 11.725473 18.101924 -0.019369 3.424273 -25.370719 -0.000004 -0.000000 -0.000003 3.597198 25.210534 3.618038 0.229377 3.654617 -26.753721 -0.000000 0.000000 -0.000001 0.000001 0.000002 -0.000005 1.705223 6.147723 12.582317 -22.062892 26.591815 66.053776 2.338294 16.767959 4.407884 18.716653 14.013172 -18.437268 -7.794666 22.949260 -16.046894 6.705477 -45.075854 -9.372827 0.000002 -0.000001 0.000001 0.366875 -3.755079 -21.150106 1.876690 -5.481448 44.732845 0.000000 0.000001 -0.000001 -0.733225 -3.073791 -14.885386 2.619405 -6.754109 60.138976 0.000003 -0.000003 0.000002 -0.210901 -8.038066 15.512280 -0.717547 -0.977175 6.437162 -0.000001 0.000003 -0.000002 0.535400 -10.091143 29.028994 2.859748 -6.625345 56.141279 0.000001 -0.000001 -0.000001 0.000000 0.000001 -0.000000 0.000000 -0.000001 0.000000 0.000000 -0.000001 0.000000 0.000000 -0.000001 -0.000000 0.000000 -0.000001 -0.000000 0.000000 -0.000001 0.000000 0.000000 -0.000001 0.000000 0.000000 -0.000001 -0.000000 0.000000 -0.000001 -0.000000 0.000000 -0.000001 0.000000 0.000000 -0.000001 0.000000 -0.000000 0.000001 -0.000000 -0.000000 0.000001 -0.000000 -0.000000 0.000001 -0.000000 
